<?xml version="1.0" encoding="utf-8"?>
<!-- Generator: Adobe Illustrator 16.0.4, SVG Export Plug-In . SVG Version: 6.00 Build 0)  -->
<!DOCTYPE svg PUBLIC "-//W3C//DTD SVG 1.1//EN" "http://www.w3.org/Graphics/SVG/1.1/DTD/svg11.dtd">
<svg version="1.1" id="Layer_1" xmlns="http://www.w3.org/2000/svg" xmlns:xlink="http://www.w3.org/1999/xlink" x="0px" y="0px"
	 width="450px" height="450px" viewBox="0 0 450 450" enable-background="new 0 0 450 450" xml:space="preserve">
<path display="none" d="M311.671,47.874c2.815-6.653-0.289-14.335-6.945-17.154c-6.655-2.825-14.34,0.289-17.152,6.944
	l-23.964,56.578c-0.041,0.104-0.062,0.211-0.104,0.311c8.396,2.463,16.521,5.721,24.28,9.733L311.671,47.874z M231.779,89.192
	l-0.041-25.272c-0.008-4.869-3.969-8.812-8.834-8.806c-4.865,0.009-8.803,3.967-8.803,8.837l0.041,25.513
	C220.049,88.976,225.939,88.913,231.779,89.192z M121.688,137.054c3.785-4.469,7.851-8.731,12.231-12.708l-17.876-17.819
	c-3.452-3.438-9.032-3.431-12.472,0.016c-3.437,3.452-3.428,9.038,0.023,12.469L121.688,137.054z M160.011,105.434
	c0.042,0.093,0.107,0.174,0.153,0.274c4.54-2.474,9.251-4.745,14.161-6.737c3.273-1.327,6.574-2.469,9.885-3.523l-22.999-56.791
	c-2.713-6.702-10.344-9.93-17.047-7.217c-6.692,2.713-9.932,10.341-7.21,17.042L160.011,105.434z M38.101,162.631l56.573,23.965
	c0.099,0.037,0.212,0.063,0.312,0.097c2.463-8.388,5.725-16.514,9.738-24.269L48.3,138.533c-6.65-2.819-14.333,0.295-17.149,6.947
	C28.331,152.139,31.447,159.818,38.101,162.631z M344.495,159.726c2.473,4.542,4.746,9.256,6.73,14.165
	c1.323,3.275,2.475,6.572,3.526,9.888l56.791-22.998c6.701-2.716,9.932-10.348,7.222-17.043c-2.715-6.695-10.347-9.935-17.046-7.22
	l-56.951,23.062C344.677,159.618,344.592,159.684,344.495,159.726z M386.28,231.309c1.169-0.002,2.276-0.235,3.294-0.643
	c3.232-1.312,5.511-4.492,5.511-8.193c-0.011-4.866-3.961-8.812-8.829-8.807l-25.522,0.046c0.491,5.901,0.559,11.793,0.272,17.631
	L386.28,231.309z M325.857,133.486l17.815-17.875c3.443-3.453,3.435-9.033-0.015-12.471c-3.456-3.44-9.036-3.431-12.476,0.013
	l-18.039,18.104C317.62,125.04,321.872,129.106,325.857,133.486z M138.969,401.898c-2.82,6.652,0.291,14.332,6.948,17.147
	c3.329,1.412,6.91,1.345,10.009,0.083c3.113-1.257,5.735-3.697,7.138-7.025l23.962-56.569c0.048-0.106,0.071-0.216,0.112-0.315
	c-8.391-2.464-16.525-5.725-24.284-9.734L138.969,401.898z M290.618,344.34c-0.036-0.1-0.095-0.186-0.142-0.279
	c-4.539,2.478-9.259,4.74-14.164,6.739c-3.277,1.323-6.576,2.472-9.889,3.523l22.998,56.793c2.717,6.696,10.344,9.926,17.049,7.21
	c6.691-2.715,9.927-10.34,7.219-17.039L290.618,344.34z M64.354,218.462c-4.875,0.008-8.815,3.967-8.804,8.837
	c0.013,4.863,3.97,8.807,8.833,8.803l25.509-0.043c-0.482-5.91-0.547-11.792-0.264-17.637L64.354,218.462z M328.951,312.712
	c-3.789,4.472-7.858,8.729-12.236,12.713l17.884,17.819c2.581,2.574,6.357,3.216,9.534,1.922c1.068-0.43,2.068-1.076,2.933-1.947
	c3.439-3.445,3.43-9.031-0.018-12.465L328.951,312.712z M218.859,360.572l0.037,25.273c0.009,4.868,3.966,8.813,8.833,8.799
	c1.168,0,2.273-0.226,3.289-0.642c3.244-1.306,5.522-4.481,5.512-8.188l-0.041-25.516
	C230.586,360.791,224.697,360.855,218.859,360.572z M124.776,316.279l-17.815,17.882c-3.438,3.444-3.434,9.028,0.019,12.468
	c2.581,2.577,6.36,3.219,9.543,1.932c1.067-0.434,2.067-1.09,2.926-1.945l18.038-18.1
	C133.021,324.727,128.757,320.662,124.776,316.279z M106.147,290.046c-2.481-4.546-4.752-9.256-6.739-14.173
	c-1.329-3.268-2.473-6.57-3.526-9.883l-56.791,23.005c-6.697,2.709-9.925,10.345-7.214,17.037c2.71,6.702,10.34,9.933,17.042,7.221
	l56.946-23.063C105.965,290.148,106.047,290.089,106.147,290.046z M412.538,287.139l-56.575-23.965
	c-0.101-0.039-0.206-0.059-0.312-0.101c-2.465,8.39-5.724,16.513-9.736,24.272l56.419,23.894c3.326,1.405,6.91,1.334,10.018,0.075
	c3.102-1.254,5.729-3.696,7.142-7.026C422.303,297.634,419.191,289.955,412.538,287.139z M324.336,184.782
	c-22.15-54.682-84.434-81.059-139.115-58.916c-54.688,22.147-81.065,84.439-58.917,139.112
	c22.141,54.691,84.432,81.067,139.115,58.92C320.108,301.752,346.482,239.475,324.336,184.782z M247.999,148
	c-1.237,5.456-6.675,8.876-12.123,7.632c-13.328-3.031-27.088-1.916-39.805,3.236c-16.524,6.695-29.452,19.419-36.403,35.83
	c-6.947,16.415-7.094,34.549-0.403,51.077c2.1,5.181-0.404,11.09-5.592,13.188c-1.244,0.508-2.531,0.747-3.8,0.747
	c-4.004,0-7.79-2.396-9.384-6.333c-8.727-21.54-8.539-45.186,0.523-66.577c9.054-21.401,25.909-37.993,47.45-46.715
	c16.57-6.713,34.53-8.173,51.91-4.21C245.825,137.115,249.246,142.544,247.999,148z"/>
<rect x="30" y="511" fill="#42637D" width="390" height="390"/>
<g display="none">
	<path display="inline" d="M231.9,89.65l-0.041-25.218c-0.012-4.861-3.953-8.796-8.812-8.787c-4.865,0.012-8.79,3.961-8.79,8.819
		l0.04,25.455C220.189,89.433,226.068,89.368,231.9,89.65z M325.777,133.844l17.777-17.835c3.435-3.438,3.429-9.014-0.018-12.446
		c-3.451-3.427-9.014-3.418-12.446,0.023l-18.008,18.059C317.556,125.423,321.804,129.476,325.777,133.844z M386.07,231.46
		c1.161-0.003,2.274-0.231,3.285-0.646c3.231-1.31,5.497-4.474,5.497-8.167c-0.013-4.859-3.947-8.796-8.812-8.791l-25.46,0.047
		c0.493,5.891,0.552,11.765,0.27,17.592L386.07,231.46z M324.251,185.034c-22.099-54.566-84.246-80.884-138.812-58.786
		c-12.229,4.953-23.032,11.924-32.192,20.368c2.905,3.62,5.675,7.363,8.31,11.231c7.77-7.353,16.905-13.279,27.121-17.41
		c16.537-6.702,34.451-8.157,51.791-4.208c5.445,1.241,8.854,6.66,7.617,12.106c-1.238,5.439-6.661,8.854-12.102,7.613
		c-13.296-3.031-27.026-1.916-39.713,3.224c-4.513,1.825-8.721,4.138-12.646,6.818c50.669,21.946,85.479,72.429,85.479,130.062
		c0,9.371-0.943,18.524-2.688,27.388C320.332,301.008,346.227,239.288,324.251,185.034z M344.378,160.036
		c2.465,4.531,4.729,9.23,6.713,14.133c1.326,3.26,2.472,6.557,3.521,9.864l56.666-22.946c6.688-2.711,9.911-10.328,7.206-17.012
		c-2.705-6.689-10.322-9.914-17.014-7.203l-56.822,23.017C344.555,159.927,344.472,159.988,344.378,160.036z M311.617,48.421
		c2.815-6.646-0.287-14.306-6.93-17.117c-6.645-2.817-14.301,0.285-17.117,6.924l-23.906,56.458c-0.04,0.1-0.07,0.202-0.105,0.308
		c8.368,2.461,16.479,5.715,24.225,9.717L311.617,48.421z M290.616,344.251c-0.035-0.097-0.101-0.185-0.142-0.285
		c-4.535,2.478-9.242,4.748-14.132,6.726c-3.278,1.322-6.569,2.469-9.876,3.521l22.956,56.664
		c2.705,6.691,10.322,9.914,17.005,7.208c6.686-2.713,9.906-10.326,7.2-17.01L290.616,344.251z M328.863,312.689
		c-3.778,4.465-7.834,8.711-12.211,12.691l17.845,17.771c2.576,2.568,6.343,3.211,9.518,1.927c1.068-0.437,2.062-1.079,2.924-1.947
		c3.433-3.438,3.427-9.014-0.02-12.442L328.863,312.689z M412.265,287.165l-56.447-23.906c-0.103-0.041-0.206-0.054-0.312-0.094
		c-2.453,8.364-5.71,16.478-9.724,24.214l56.304,23.839c3.32,1.408,6.9,1.339,10.004,0.082c3.093-1.256,5.71-3.69,7.119-7.016
		C422.012,297.645,418.913,289.98,412.265,287.165z M160.436,106.124c4.53-2.473,9.231-4.727,14.136-6.719
		c3.262-1.32,6.561-2.461,9.864-3.518L161.48,39.218c-2.705-6.681-10.327-9.902-17.005-7.197c-6.684,2.706-9.917,10.322-7.2,17.005
		l23.008,56.825C160.33,105.951,160.389,106.033,160.436,106.124z"/>
	<path display="inline" d="M138.548,186.887c-25.115-46.23-74.253-75.743-127.146-75.743c-3.841,0-7.642,0.149-11.402,0.425v28.961
		c3.749-0.343,7.549-0.534,11.402-0.534c37.296,0,72.211,18.364,93.752,48.023c-26.259,5.087-50.112,19.904-66.196,41.799
		c-4.713,6.424-3.328,15.453,3.092,20.166c6.425,4.719,15.45,3.332,20.168-3.092c14.716-20.033,38.317-32,63.139-32
		c43.165,0,78.279,35.114,78.279,78.279c0,43.164-35.114,78.277-78.279,78.277c-16.207,0-31.751-4.911-44.954-14.188
		c-4.278-3.008-9.594-3.316-14.054-1.375c-1.021,0.336-2.025,0.775-2.98,1.362c-17.692,10.879-29.839,14.198-51.967,14.198
		c-3.868,0-7.661-0.221-11.402-0.625v28.974c3.763,0.32,7.56,0.5,11.402,0.5c24.469,0,41.099-3.892,60.216-14.471
		c16.278,9.472,34.674,14.471,53.739,14.471c59.073,0,107.125-48.06,107.125-107.125
		C232.482,238.566,191.407,193.407,138.548,186.887z"/>
</g>
<path fill="#42637D" d="M557.998,95.616c-5.602,41.507-76.594,123.717-76.594,182.684c0,42.302,34.295,76.591,76.594,76.591
	c42.3,0,76.597-34.289,76.597-76.591C634.595,216.701,562.946,138.108,557.998,95.616z"/>
<path fill="#FFFFFF" d="M563.435,335.529c-4.573,0-8.489-3.475-8.944-8.123c-0.484-4.947,3.133-9.352,8.079-9.836
	c1.61-0.157,39.447-4.331,37.237-44.706c-0.271-4.964,3.531-9.207,8.494-9.479c4.975-0.283,9.207,3.531,9.479,8.494
	c1.532,27.996-11.516,43.539-22.729,51.648c-13.91,10.059-29.049,11.793-30.729,11.957
	C564.024,335.516,563.729,335.529,563.435,335.529z"/>
<g>
	<g>
		<path fill="#FFFFFF" d="M209.855,301.352c-5.852,8.27-30.278,17.938-36.883,30.575c-4.74,9.066-1.23,20.259,7.835,24.997
			c9.066,4.739,20.259,1.232,24.999-7.834C212.708,335.886,206.155,311.014,209.855,301.352z M192.264,354.354
			c-4.109,0.599-7.548-0.728-7.925-0.879c-0.069-0.026-0.133-0.058-0.196-0.092c-0.98-0.512-1.431-1.695-1.008-2.742
			c0.452-1.115,1.72-1.654,2.834-1.203c0.363,0.146,8.941,3.492,12.99-5.41c0.498-1.096,1.788-1.577,2.883-1.079
			c1.097,0.495,1.578,1.788,1.08,2.884C200.113,352.001,195.576,353.871,192.264,354.354z"/>
		<path fill="#FFFFFF" d="M144.67,301.352c-5.852,8.27-30.278,17.938-36.883,30.575c-4.74,9.066-1.23,20.259,7.835,24.997
			c9.066,4.739,20.259,1.232,24.999-7.834C147.522,335.886,140.969,311.014,144.67,301.352z M127.078,354.354
			c-4.109,0.599-7.548-0.728-7.925-0.879c-0.069-0.026-0.133-0.058-0.196-0.092c-0.98-0.512-1.431-1.695-1.008-2.742
			c0.452-1.115,1.72-1.654,2.834-1.203c0.363,0.146,8.941,3.492,12.99-5.41c0.498-1.096,1.788-1.577,2.883-1.079
			c1.097,0.495,1.578,1.788,1.08,2.884C134.927,352.001,130.39,353.871,127.078,354.354z"/>
		<path fill="#FFFFFF" d="M273.412,301.919c-5.182,8.703-28.771,20.265-34.36,33.386c-4.012,9.412,0.37,20.293,9.78,24.303
			c9.411,4.012,20.294-0.366,24.304-9.777C278.975,336.121,270.484,311.842,273.412,301.919z M260.051,356.143
			c-4.05,0.92-7.582-0.131-7.971-0.252c-0.07-0.021-0.139-0.047-0.203-0.076c-1.018-0.434-1.559-1.578-1.221-2.653
			c0.363-1.146,1.585-1.783,2.73-1.422c0.371,0.116,9.188,2.774,12.521-6.416c0.408-1.134,1.658-1.716,2.789-1.308
			c1.134,0.41,1.714,1.659,1.304,2.789C267.689,353.178,263.314,355.4,260.051,356.143z"/>
	</g>
	<path fill="#FFFFFF" d="M224.885,354.559c-4.367,9.143-26.802,22.805-31.173,36.379c-3.137,9.739,2.218,20.176,11.956,23.312
		c9.736,3.135,20.175-2.216,23.311-11.955C233.544,388.111,222.875,364.707,224.885,354.559z M216.522,409.775
		c-3.948,1.283-7.562,0.561-7.96,0.475c-0.072-0.016-0.141-0.034-0.209-0.059c-1.052-0.338-1.696-1.43-1.458-2.531
		c0.257-1.176,1.417-1.92,2.591-1.666c0.383,0.084,9.403,1.928,11.886-7.53c0.305-1.164,1.495-1.858,2.658-1.554
		c1.166,0.305,1.857,1.496,1.553,2.658C223.86,406.127,219.706,408.738,216.522,409.775z"/>
	<path fill="#FFFFFF" d="M160.218,354.559c-4.367,9.143-26.802,22.805-31.173,36.379c-3.137,9.739,2.218,20.176,11.956,23.312
		c9.736,3.135,20.175-2.216,23.311-11.955C168.877,388.111,158.208,364.707,160.218,354.559z M151.856,409.775
		c-3.948,1.283-7.562,0.561-7.96,0.475c-0.072-0.016-0.141-0.034-0.209-0.059c-1.052-0.338-1.696-1.43-1.458-2.531
		c0.257-1.176,1.417-1.92,2.591-1.666c0.383,0.084,9.403,1.928,11.886-7.53c0.305-1.164,1.495-1.858,2.658-1.554
		c1.166,0.305,1.857,1.496,1.553,2.658C159.193,406.127,155.039,408.738,151.856,409.775z"/>
	<path fill="#FFFFFF" d="M325.89,97.295c-22.163-40.787-65.516-66.831-112.185-66.831c-64.84,0-117.399,45.356-125.939,106.924
		c-32.609,7.337-57.048,36.508-57.048,71.297c0,40.308,32.79,73.104,73.101,73.104c16.952,0,32.73-5.51,45.418-15.684
		c20.449,13.104,41.631,19.498,64.467,19.498c21.584,0,36.262-3.434,53.13-12.771c14.364,8.363,30.593,12.771,47.418,12.771
		c52.124,0,94.526-42.399,94.526-94.521C408.779,142.9,372.532,103.05,325.89,97.295z M314.253,260.15
		c-14.301,0-28.022-4.334-39.669-12.521c-3.771-2.648-8.46-2.923-12.398-1.214c-0.898,0.31-1.785,0.688-2.629,1.206
		c-15.619,9.604-26.328,12.529-45.852,12.529c-20.651,0-39.017-6.467-57.807-20.357c-2.35-1.732-5.086-2.488-7.792-2.439
		c-3.521-0.064-7.049,1.271-9.625,4.064c-8.963,9.755-20.949,14.912-34.662,14.912c-26.27,0-47.648-21.373-47.648-47.645
		c0-26.27,21.378-47.641,47.648-47.641c9.188,0,18.104,2.615,25.777,7.57c5.908,3.806,13.786,2.102,17.594-3.806
		c3.811-5.911,2.104-13.788-3.803-17.599c-9.001-5.804-19.114-9.501-29.658-10.936c8.755-46.563,49.752-80.353,99.976-80.353
		c32.9,0,63.712,16.204,82.721,42.374c-23.171,4.489-44.217,17.562-58.408,36.881c-4.158,5.669-2.937,13.633,2.729,17.793
		c5.668,4.166,13.628,2.938,17.79-2.726c12.984-17.682,33.814-28.234,55.718-28.234c38.087,0,69.07,30.989,69.07,69.073
		C383.323,229.165,352.34,260.15,314.253,260.15z"/>
	<path fill="#FFFFFF" d="M184.937,450c-0.066-13.727-6.879-30.855-5.237-39.145c-4.367,9.141-26.802,22.805-31.173,36.379
		c-0.295,0.918-0.492,1.842-0.64,2.766H184.937z"/>
</g>
</svg>
