<?xml version="1.0" encoding="utf-8"?>
<!-- Generator: Adobe Illustrator 16.0.4, SVG Export Plug-In . SVG Version: 6.00 Build 0)  -->
<!DOCTYPE svg PUBLIC "-//W3C//DTD SVG 1.1//EN" "http://www.w3.org/Graphics/SVG/1.1/DTD/svg11.dtd">
<svg version="1.1" id="Layer_1" xmlns="http://www.w3.org/2000/svg" xmlns:xlink="http://www.w3.org/1999/xlink" x="0px" y="0px"
	 width="450px" height="450px" viewBox="0 0 450 450" enable-background="new 0 0 450 450" xml:space="preserve">
<path display="none" d="M311.671,47.874c2.815-6.653-0.289-14.335-6.945-17.154c-6.656-2.825-14.34,0.289-17.153,6.944
	l-23.963,56.578c-0.041,0.104-0.063,0.211-0.105,0.311c8.395,2.463,16.521,5.721,24.28,9.733L311.671,47.874z M231.779,89.192
	l-0.041-25.272c-0.008-4.869-3.969-8.812-8.834-8.806c-4.865,0.009-8.803,3.967-8.803,8.837l0.041,25.513
	C220.049,88.976,225.939,88.913,231.779,89.192z M121.688,137.054c3.785-4.469,7.851-8.731,12.231-12.708l-17.876-17.819
	c-3.452-3.438-9.032-3.431-12.472,0.016c-3.437,3.452-3.428,9.038,0.023,12.469L121.688,137.054z M160.011,105.434
	c0.042,0.093,0.107,0.174,0.153,0.274c4.54-2.474,9.251-4.745,14.161-6.737c3.273-1.327,6.574-2.469,9.885-3.523l-22.999-56.791
	c-2.713-6.702-10.344-9.93-17.047-7.217c-6.692,2.713-9.932,10.341-7.21,17.042L160.011,105.434z M38.101,162.631l56.573,23.965
	c0.099,0.037,0.212,0.063,0.312,0.097c2.463-8.388,5.725-16.514,9.738-24.269L48.3,138.533c-6.65-2.819-14.333,0.295-17.149,6.947
	C28.331,152.139,31.447,159.818,38.101,162.631z M344.495,159.726c2.473,4.542,4.746,9.256,6.731,14.165
	c1.323,3.275,2.474,6.572,3.526,9.888l56.791-22.998c6.701-2.716,9.932-10.348,7.222-17.043c-2.715-6.695-10.347-9.935-17.046-7.22
	l-56.951,23.062C344.677,159.618,344.592,159.684,344.495,159.726z M386.28,231.309c1.169-0.002,2.277-0.236,3.294-0.643
	c3.233-1.312,5.511-4.492,5.511-8.193c-0.011-4.866-3.961-8.812-8.829-8.807l-25.523,0.046c0.492,5.901,0.559,11.793,0.273,17.631
	L386.28,231.309z M325.857,133.486l17.816-17.875c3.443-3.453,3.434-9.033-0.015-12.471c-3.456-3.44-9.036-3.431-12.475,0.013
	l-18.039,18.104C317.62,125.04,321.872,129.106,325.857,133.486z M138.969,401.898c-2.82,6.653,0.291,14.332,6.948,17.148
	c3.329,1.412,6.91,1.344,10.009,0.083c3.113-1.257,5.735-3.698,7.138-7.026l23.962-56.569c0.048-0.106,0.071-0.216,0.112-0.315
	c-8.391-2.464-16.525-5.725-24.284-9.734L138.969,401.898z M290.618,344.34c-0.036-0.1-0.095-0.186-0.142-0.279
	c-4.539,2.477-9.258,4.74-14.164,6.739c-3.277,1.323-6.576,2.472-9.888,3.523l22.998,56.793c2.716,6.696,10.344,9.926,17.049,7.21
	c6.691-2.715,9.926-10.34,7.218-17.039L290.618,344.34z M64.354,218.462c-4.875,0.008-8.815,3.967-8.804,8.837
	c0.013,4.863,3.97,8.807,8.833,8.803l25.509-0.043c-0.482-5.91-0.547-11.792-0.264-17.637L64.354,218.462z M328.951,312.712
	c-3.789,4.472-7.858,8.729-12.236,12.713l17.884,17.819c2.581,2.574,6.357,3.216,9.534,1.922c1.068-0.43,2.068-1.076,2.932-1.947
	c3.44-3.445,3.43-9.031-0.017-12.465L328.951,312.712z M218.859,360.572l0.037,25.273c0.009,4.869,3.966,8.814,8.833,8.799
	c1.168,0,2.273-0.225,3.289-0.641c3.244-1.306,5.522-4.482,5.512-8.188l-0.041-25.516
	C230.586,360.791,224.697,360.855,218.859,360.572z M124.776,316.279l-17.815,17.882c-3.438,3.444-3.434,9.028,0.019,12.468
	c2.581,2.577,6.36,3.219,9.543,1.932c1.067-0.434,2.067-1.09,2.926-1.946l18.038-18.099
	C133.021,324.727,128.757,320.662,124.776,316.279z M106.147,290.046c-2.481-4.546-4.752-9.256-6.739-14.173
	c-1.329-3.268-2.473-6.57-3.526-9.883l-56.791,23.005c-6.697,2.709-9.925,10.345-7.214,17.037c2.71,6.702,10.34,9.933,17.042,7.221
	l56.946-23.063C105.965,290.148,106.047,290.089,106.147,290.046z M412.538,287.139l-56.575-23.965
	c-0.101-0.039-0.206-0.059-0.312-0.101c-2.464,8.39-5.723,16.513-9.736,24.272l56.419,23.894c3.326,1.405,6.91,1.334,10.018,0.075
	c3.101-1.254,5.729-3.696,7.141-7.026C422.303,297.634,419.191,289.955,412.538,287.139z M324.336,184.782
	c-22.15-54.682-84.434-81.059-139.115-58.916c-54.688,22.147-81.065,84.439-58.917,139.112
	c22.141,54.692,84.432,81.068,139.115,58.92C320.108,301.752,346.482,239.475,324.336,184.782z M247.999,148
	c-1.237,5.456-6.675,8.876-12.123,7.632c-13.328-3.031-27.088-1.916-39.805,3.236c-16.524,6.695-29.452,19.419-36.403,35.83
	c-6.947,16.415-7.094,34.549-0.403,51.077c2.1,5.181-0.404,11.09-5.592,13.188c-1.244,0.507-2.531,0.747-3.8,0.747
	c-4.004,0-7.79-2.395-9.384-6.333c-8.727-21.54-8.539-45.186,0.523-66.577c9.054-21.401,25.909-37.993,47.45-46.715
	c16.57-6.713,34.53-8.173,51.91-4.21C245.825,137.115,249.246,142.544,247.999,148z"/>
<rect x="30" y="511" fill="#42637D" width="390" height="390"/>
<g display="none">
	<path display="inline" d="M231.9,89.65l-0.041-25.218c-0.012-4.861-3.953-8.796-8.812-8.787c-4.865,0.012-8.79,3.961-8.79,8.819
		l0.04,25.455C220.189,89.433,226.068,89.368,231.9,89.65z M325.777,133.844l17.778-17.835c3.434-3.438,3.428-9.014-0.018-12.446
		c-3.451-3.427-9.014-3.418-12.446,0.023l-18.008,18.059C317.556,125.423,321.804,129.476,325.777,133.844z M386.07,231.46
		c1.161-0.003,2.275-0.231,3.285-0.646c3.232-1.309,5.498-4.473,5.498-8.167c-0.013-4.859-3.948-8.796-8.813-8.791l-25.46,0.047
		c0.493,5.891,0.552,11.765,0.27,17.592L386.07,231.46z M324.251,185.034c-22.099-54.566-84.246-80.884-138.812-58.786
		c-12.229,4.953-23.032,11.924-32.192,20.368c2.905,3.62,5.675,7.363,8.31,11.231c7.77-7.353,16.905-13.279,27.121-17.41
		c16.537-6.702,34.451-8.157,51.791-4.208c5.445,1.241,8.854,6.66,7.617,12.106c-1.238,5.439-6.661,8.854-12.102,7.613
		c-13.296-3.031-27.026-1.916-39.713,3.224c-4.513,1.825-8.721,4.138-12.646,6.818c50.669,21.946,85.479,72.429,85.479,130.062
		c0,9.371-0.944,18.524-2.688,27.387C320.332,301.008,346.227,239.288,324.251,185.034z M344.378,160.036
		c2.465,4.531,4.729,9.23,6.713,14.133c1.326,3.26,2.472,6.557,3.521,9.864l56.666-22.946c6.688-2.711,9.911-10.328,7.206-17.012
		c-2.705-6.689-10.322-9.914-17.013-7.203l-56.823,23.017C344.555,159.927,344.472,159.988,344.378,160.036z M311.617,48.421
		c2.816-6.646-0.287-14.306-6.93-17.117c-6.644-2.817-14.301,0.285-17.117,6.924l-23.906,56.458c-0.04,0.1-0.07,0.202-0.105,0.308
		c8.368,2.461,16.479,5.715,24.224,9.717L311.617,48.421z M290.616,344.251c-0.035-0.097-0.101-0.185-0.142-0.285
		c-4.535,2.478-9.242,4.748-14.131,6.726c-3.279,1.322-6.57,2.468-9.876,3.521l22.956,56.664c2.705,6.691,10.322,9.914,17.005,7.208
		c6.685-2.713,9.906-10.326,7.2-17.01L290.616,344.251z M328.863,312.689c-3.778,4.465-7.834,8.711-12.211,12.692l17.845,17.772
		c2.576,2.568,6.343,3.211,9.518,1.926c1.068-0.436,2.061-1.079,2.923-1.947c3.433-3.438,3.427-9.014-0.019-12.443L328.863,312.689z
		 M412.265,287.165l-56.448-23.906c-0.102-0.041-0.206-0.054-0.312-0.094c-2.453,8.364-5.71,16.478-9.724,24.214l56.304,23.839
		c3.32,1.408,6.9,1.339,10.004,0.082c3.093-1.256,5.71-3.69,7.119-7.016C422.012,297.645,418.913,289.98,412.265,287.165z
		 M160.436,106.124c4.53-2.473,9.231-4.727,14.136-6.719c3.262-1.32,6.561-2.461,9.864-3.518L161.48,39.218
		c-2.705-6.681-10.327-9.902-17.005-7.197c-6.684,2.706-9.917,10.322-7.2,17.005l23.008,56.825
		C160.33,105.951,160.389,106.033,160.436,106.124z"/>
	<path display="inline" d="M138.548,186.887c-25.115-46.23-74.253-75.743-127.146-75.743c-3.841,0-7.642,0.149-11.402,0.425v28.961
		c3.749-0.343,7.549-0.534,11.402-0.534c37.296,0,72.211,18.364,93.752,48.023c-26.259,5.087-50.112,19.904-66.196,41.799
		c-4.713,6.424-3.328,15.453,3.092,20.166c6.425,4.719,15.45,3.332,20.168-3.092c14.716-20.033,38.317-32,63.139-32
		c43.165,0,78.279,35.114,78.279,78.279c0,43.164-35.114,78.277-78.279,78.277c-16.207,0-31.751-4.911-44.954-14.188
		c-4.278-3.008-9.594-3.316-14.054-1.375c-1.021,0.336-2.025,0.775-2.98,1.362c-17.692,10.879-29.839,14.199-51.967,14.199
		c-3.868,0-7.661-0.222-11.402-0.626v28.974c3.763,0.32,7.56,0.5,11.402,0.5c24.469,0,41.099-3.891,60.216-14.471
		c16.278,9.472,34.674,14.471,53.739,14.471c59.073,0,107.125-48.06,107.125-107.125
		C232.482,238.566,191.407,193.407,138.548,186.887z"/>
</g>
<path fill="#42637D" d="M557.998,95.616c-5.602,41.507-76.594,123.717-76.594,182.684c0,42.302,34.295,76.591,76.594,76.591
	c42.3,0,76.597-34.289,76.597-76.591C634.595,216.701,562.946,138.108,557.998,95.616z"/>
<path fill="#FFFFFF" d="M563.435,335.529c-4.574,0-8.49-3.475-8.945-8.123c-0.484-4.947,3.133-9.352,8.079-9.836
	c1.611-0.157,39.448-4.331,37.238-44.706c-0.271-4.964,3.531-9.207,8.494-9.479c4.974-0.283,9.207,3.531,9.479,8.494
	c1.533,27.996-11.515,43.539-22.729,51.648c-13.91,10.059-29.049,11.793-30.729,11.957
	C564.024,335.516,563.729,335.529,563.435,335.529z"/>
<g>
	<g>
		<path fill="#42637D" d="M-242.145,301.352c-5.852,8.269-30.278,17.937-36.883,30.575c-4.74,9.066-1.23,20.259,7.835,24.997
			c9.066,4.739,20.259,1.232,24.999-7.834C-239.292,335.886-245.845,311.014-242.145,301.352z M-259.736,354.354
			c-4.109,0.598-7.548-0.728-7.925-0.879c-0.069-0.027-0.133-0.058-0.196-0.092c-0.98-0.512-1.431-1.695-1.008-2.742
			c0.452-1.115,1.72-1.654,2.834-1.203c0.363,0.146,8.941,3.492,12.99-5.41c0.498-1.096,1.788-1.578,2.883-1.08
			c1.097,0.496,1.578,1.789,1.08,2.884C-251.887,352.001-256.424,353.871-259.736,354.354z"/>
		<path fill="#42637D" d="M-307.33,301.352c-5.852,8.269-30.278,17.937-36.883,30.575c-4.74,9.066-1.23,20.259,7.835,24.997
			c9.066,4.739,20.259,1.232,24.999-7.834C-304.478,335.886-311.031,311.014-307.33,301.352z M-324.922,354.354
			c-4.109,0.598-7.548-0.728-7.925-0.879c-0.069-0.027-0.133-0.058-0.196-0.092c-0.98-0.512-1.431-1.695-1.008-2.742
			c0.452-1.115,1.72-1.654,2.834-1.203c0.363,0.146,8.941,3.492,12.99-5.41c0.498-1.096,1.788-1.578,2.883-1.08
			c1.097,0.496,1.578,1.789,1.08,2.884C-317.073,352.001-321.61,353.871-324.922,354.354z"/>
		<path fill="#42637D" d="M-178.588,301.919c-5.182,8.703-28.771,20.265-34.36,33.386c-4.012,9.412,0.37,20.293,9.78,24.303
			c9.411,4.011,20.294-0.367,24.304-9.778C-173.025,336.121-181.516,311.842-178.588,301.919z M-191.949,356.143
			c-4.05,0.92-7.582-0.131-7.971-0.252c-0.07-0.022-0.138-0.047-0.203-0.076c-1.018-0.434-1.559-1.578-1.221-2.654
			c0.363-1.146,1.585-1.783,2.729-1.422c0.373,0.117,9.189,2.775,12.523-6.416c0.41-1.133,1.659-1.715,2.789-1.307
			c1.134,0.41,1.714,1.659,1.304,2.789C-184.311,353.178-188.686,355.4-191.949,356.143z"/>
	</g>
	<path fill="#42637D" d="M-227.115,354.559c-4.367,9.142-26.802,22.805-31.173,36.379c-3.137,9.739,2.218,20.176,11.956,23.312
		c9.736,3.135,20.175-2.216,23.311-11.955C-218.456,388.111-229.125,364.707-227.115,354.559z M-235.478,409.775
		c-3.948,1.283-7.562,0.561-7.96,0.475c-0.072-0.016-0.141-0.034-0.209-0.059c-1.052-0.338-1.696-1.43-1.458-2.531
		c0.257-1.176,1.417-1.92,2.591-1.666c0.383,0.084,9.403,1.928,11.886-7.53c0.305-1.164,1.495-1.858,2.658-1.554
		c1.166,0.305,1.857,1.496,1.553,2.658C-228.14,406.127-232.294,408.738-235.478,409.775z"/>
	<path fill="#42637D" d="M-291.782,354.559c-4.367,9.142-26.802,22.805-31.173,36.379c-3.137,9.739,2.218,20.176,11.956,23.312
		c9.736,3.135,20.175-2.216,23.311-11.955C-283.123,388.111-293.792,364.707-291.782,354.559z M-300.144,409.775
		c-3.948,1.283-7.562,0.561-7.96,0.475c-0.072-0.016-0.141-0.034-0.209-0.059c-1.052-0.338-1.696-1.43-1.458-2.531
		c0.257-1.176,1.417-1.92,2.591-1.666c0.383,0.084,9.403,1.928,11.886-7.53c0.305-1.164,1.495-1.858,2.658-1.554
		c1.166,0.305,1.857,1.496,1.553,2.658C-292.807,406.127-296.961,408.738-300.144,409.775z"/>
	<path fill="#42637D" d="M-126.11,97.295c-22.163-40.787-65.516-66.831-112.185-66.831c-64.84,0-117.399,45.356-125.939,106.924
		c-32.609,7.337-57.048,36.508-57.048,71.297c0,40.308,32.79,73.104,73.101,73.104c16.952,0,32.73-5.51,45.418-15.684
		c20.449,13.104,41.631,19.498,64.467,19.498c21.584,0,36.262-3.433,53.13-12.771c14.364,8.364,30.593,12.771,47.418,12.771
		c52.124,0,94.526-42.399,94.526-94.521C-43.221,142.9-79.468,103.05-126.11,97.295z M-137.747,260.15
		c-14.301,0-28.022-4.334-39.669-12.521c-3.771-2.648-8.46-2.923-12.398-1.214c-0.9,0.31-1.786,0.688-2.63,1.206
		c-15.618,9.604-26.328,12.529-45.851,12.529c-20.651,0-39.017-6.467-57.807-20.357c-2.35-1.732-5.086-2.488-7.792-2.439
		c-3.521-0.065-7.049,1.27-9.625,4.064c-8.963,9.755-20.949,14.912-34.662,14.912c-26.27,0-47.648-21.373-47.648-47.645
		c0-26.27,21.378-47.641,47.648-47.641c9.188,0,18.104,2.615,25.777,7.57c5.908,3.806,13.786,2.102,17.594-3.806
		c3.811-5.911,2.104-13.788-3.803-17.599c-9.001-5.804-19.114-9.501-29.658-10.936c8.755-46.563,49.752-80.353,99.976-80.353
		c32.901,0,63.712,16.204,82.721,42.374c-23.171,4.489-44.217,17.562-58.409,36.881c-4.157,5.669-2.936,13.633,2.729,17.793
		c5.668,4.166,13.628,2.938,17.79-2.726c12.986-17.682,33.816-28.234,55.718-28.234c38.087,0,69.07,30.989,69.07,69.073
		C-68.677,229.165-99.66,260.15-137.747,260.15z"/>
	<path fill="#42637D" d="M-267.063,450c-0.066-13.727-6.879-30.855-5.237-39.145c-4.367,9.141-26.802,22.805-31.173,36.379
		c-0.295,0.918-0.492,1.842-0.64,2.766H-267.063z"/>
</g>
<path fill="#FFFFFF" d="M391.564,242.975l-64.476,19.702l-41.493-23.961c1.018-4.464,1.606-9.092,1.606-13.865
	c0-4.762-0.591-9.384-1.604-13.851l41.497-23.964l64.47,19.7c1.782,0.544,3.575,0.81,5.352,0.81c7.84,0,15.078-5.074,17.49-12.959
	c2.957-9.656-2.486-19.891-12.148-22.842l-31.828-9.723l16.881-9.749c8.75-5.054,11.75-16.243,6.699-24.991
	c-5.055-8.748-16.24-11.751-24.994-6.7l-16.885,9.749l7.498-32.423c2.275-9.853-3.863-19.677-13.709-21.951
	c-9.852-2.285-19.67,3.859-21.945,13.706l-15.18,65.685l-41.541,23.988c-6.77-6.301-14.904-11.141-23.955-13.935v-47.868
	l49.297-45.99c7.39-6.891,7.793-18.468,0.896-25.85c-6.891-7.394-18.471-7.802-25.855-0.9l-24.338,22.7V48
	c0-10.111-8.195-18.3-18.294-18.3c-10.104,0-18.297,8.189-18.297,18.3v19.492l-24.34-22.7c-7.382-6.902-18.968-6.494-25.856,0.9
	c-6.896,7.382-6.495,18.959,0.896,25.85l49.3,45.99V165.4c-9.052,2.792-17.187,7.634-23.961,13.935L141.2,155.347l-15.167-65.69
	c-2.274-9.842-12.092-15.979-21.945-13.701c-9.847,2.271-15.983,12.092-13.709,21.939l7.496,32.434l-16.886-9.754
	c-8.75-5.048-19.946-2.042-24.994,6.703c-5.054,8.748-2.051,19.938,6.697,24.991l16.885,9.749l-31.833,9.72
	c-9.665,2.957-15.104,13.186-12.153,22.842c2.413,7.892,9.656,12.965,17.496,12.965c1.765,0,3.564-0.266,5.346-0.81l64.475-19.7
	l41.501,23.958c-1.024,4.467-1.614,9.083-1.614,13.857c0,4.768,0.59,9.396,1.614,13.859l-41.506,23.967l-64.467-19.708
	c-9.653-2.944-19.888,2.484-22.845,12.152c-2.951,9.661,2.488,19.891,12.15,22.848l31.835,9.72l-16.885,9.75
	c-8.748,5.045-11.751,16.239-6.697,24.994c3.393,5.859,9.538,9.146,15.861,9.146c3.107,0,6.249-0.792,9.132-2.453l16.886-9.748
	l-7.496,32.429c-2.276,9.848,3.862,19.672,13.707,21.938c1.38,0.323,2.768,0.479,4.128,0.479c8.326,0,15.858-5.722,17.811-14.181
	l15.176-65.679l41.547-23.993c6.772,6.295,14.91,11.138,23.956,13.926v47.877l-49.294,45.983
	c-7.391,6.892-7.793,18.475-0.896,25.855c6.891,7.395,18.474,7.795,25.856,0.903l24.334-22.703v19.492
	c0,10.106,8.195,18.3,18.294,18.3c10.102,0,18.297-8.191,18.297-18.3v-19.492l24.338,22.703c3.529,3.292,8.008,4.917,12.473,4.917
	c4.9,0,9.781-1.949,13.39-5.82c6.891-7.382,6.492-18.965-0.9-25.855l-49.299-45.983v-47.877c9.051-2.788,17.187-7.631,23.955-13.926
	l41.553,23.993l15.174,65.679c1.955,8.465,9.479,14.181,17.812,14.181c1.358,0,2.746-0.156,4.125-0.475
	c9.854-2.273,15.986-12.098,13.715-21.944l-7.494-32.429l16.881,9.748c2.886,1.667,6.023,2.453,9.131,2.453
	c6.324,0,12.479-3.28,15.861-9.146c5.053-8.754,2.057-19.938-6.697-24.988l-16.883-9.754l31.834-9.721
	c9.662-2.951,15.105-13.18,12.148-22.848C411.451,245.453,401.221,240.009,391.564,242.975z M224.996,257.782
	c-18.156,0-32.926-14.771-32.926-32.932c0-18.155,14.771-32.932,32.926-32.932c18.16,0,32.938,14.777,32.938,32.932
	C257.934,243.012,243.156,257.782,224.996,257.782z"/>
</svg>
