<?xml version="1.0" encoding="utf-8"?>
<!-- Generator: Adobe Illustrator 16.0.4, SVG Export Plug-In . SVG Version: 6.00 Build 0)  -->
<!DOCTYPE svg PUBLIC "-//W3C//DTD SVG 1.1//EN" "http://www.w3.org/Graphics/SVG/1.1/DTD/svg11.dtd">
<svg version="1.1" id="Layer_1" xmlns="http://www.w3.org/2000/svg" xmlns:xlink="http://www.w3.org/1999/xlink" x="0px" y="0px"
	 width="450px" height="450px" viewBox="0 0 450 450" enable-background="new 0 0 450 450" xml:space="preserve">
<path fill="#FFFFFF" d="M311.671,47.874c2.815-6.653-0.289-14.335-6.945-17.154c-6.656-2.825-14.34,0.289-17.153,6.944
	l-23.963,56.578c-0.041,0.104-0.063,0.211-0.105,0.311c8.395,2.463,16.521,5.721,24.28,9.733L311.671,47.874z M231.779,89.192
	l-0.041-25.272c-0.008-4.869-3.969-8.812-8.834-8.806c-4.865,0.009-8.803,3.967-8.803,8.837l0.041,25.513
	C220.049,88.976,225.939,88.913,231.779,89.192z M121.688,137.054c3.785-4.469,7.851-8.731,12.231-12.708l-17.876-17.819
	c-3.452-3.438-9.032-3.431-12.472,0.016c-3.437,3.452-3.428,9.038,0.023,12.469L121.688,137.054z M160.011,105.434
	c0.042,0.093,0.107,0.174,0.153,0.274c4.54-2.474,9.251-4.745,14.161-6.737c3.273-1.327,6.574-2.469,9.885-3.523l-22.999-56.791
	c-2.713-6.702-10.344-9.93-17.047-7.217c-6.692,2.713-9.932,10.341-7.21,17.042L160.011,105.434z M38.101,162.631l56.573,23.965
	c0.099,0.037,0.212,0.063,0.312,0.097c2.463-8.388,5.725-16.514,9.738-24.269L48.3,138.533c-6.65-2.819-14.333,0.295-17.149,6.947
	C28.331,152.139,31.447,159.818,38.101,162.631z M344.495,159.726c2.473,4.542,4.746,9.256,6.731,14.165
	c1.323,3.275,2.474,6.572,3.526,9.888l56.791-22.998c6.701-2.716,9.932-10.348,7.222-17.043c-2.715-6.695-10.347-9.935-17.046-7.22
	l-56.951,23.062C344.677,159.618,344.592,159.684,344.495,159.726z M386.28,231.309c1.169-0.002,2.277-0.236,3.294-0.643
	c3.233-1.312,5.511-4.492,5.511-8.193c-0.011-4.866-3.961-8.812-8.829-8.807l-25.523,0.046c0.492,5.901,0.559,11.793,0.273,17.631
	L386.28,231.309z M325.857,133.486l17.816-17.875c3.443-3.453,3.434-9.033-0.015-12.471c-3.456-3.44-9.036-3.431-12.475,0.013
	l-18.039,18.104C317.62,125.04,321.872,129.106,325.857,133.486z M138.969,401.898c-2.82,6.653,0.291,14.332,6.948,17.148
	c3.329,1.412,6.91,1.344,10.009,0.083c3.113-1.257,5.735-3.698,7.138-7.026l23.962-56.569c0.048-0.106,0.071-0.216,0.112-0.315
	c-8.391-2.464-16.525-5.725-24.284-9.734L138.969,401.898z M290.618,344.34c-0.036-0.1-0.095-0.186-0.142-0.279
	c-4.539,2.477-9.258,4.74-14.164,6.739c-3.277,1.323-6.576,2.472-9.888,3.523l22.998,56.793c2.716,6.696,10.344,9.926,17.049,7.21
	c6.691-2.715,9.926-10.34,7.218-17.039L290.618,344.34z M64.354,218.462c-4.875,0.008-8.815,3.967-8.804,8.837
	c0.013,4.863,3.97,8.807,8.833,8.803l25.509-0.043c-0.482-5.91-0.547-11.792-0.264-17.637L64.354,218.462z M328.951,312.712
	c-3.789,4.472-7.858,8.729-12.236,12.713l17.884,17.819c2.581,2.574,6.357,3.216,9.534,1.922c1.068-0.43,2.068-1.076,2.932-1.947
	c3.44-3.445,3.43-9.031-0.017-12.465L328.951,312.712z M218.859,360.572l0.037,25.273c0.009,4.869,3.966,8.814,8.833,8.799
	c1.168,0,2.273-0.225,3.289-0.641c3.244-1.306,5.522-4.482,5.512-8.188l-0.041-25.516
	C230.586,360.791,224.697,360.855,218.859,360.572z M124.776,316.279l-17.815,17.882c-3.438,3.444-3.434,9.028,0.019,12.468
	c2.581,2.577,6.36,3.219,9.543,1.932c1.067-0.434,2.067-1.09,2.926-1.946l18.038-18.099
	C133.021,324.727,128.757,320.662,124.776,316.279z M106.147,290.046c-2.481-4.546-4.752-9.256-6.739-14.173
	c-1.329-3.268-2.473-6.57-3.526-9.883l-56.791,23.005c-6.697,2.709-9.925,10.345-7.214,17.037c2.71,6.702,10.34,9.933,17.042,7.221
	l56.946-23.063C105.965,290.148,106.047,290.089,106.147,290.046z M412.538,287.139l-56.575-23.965
	c-0.101-0.039-0.206-0.059-0.312-0.101c-2.464,8.39-5.723,16.513-9.736,24.272l56.419,23.894c3.326,1.405,6.91,1.334,10.018,0.075
	c3.101-1.254,5.729-3.696,7.141-7.026C422.303,297.634,419.191,289.955,412.538,287.139z M324.336,184.782
	c-22.15-54.682-84.434-81.059-139.115-58.916c-54.688,22.147-81.065,84.439-58.917,139.112
	c22.141,54.692,84.432,81.068,139.115,58.92C320.108,301.752,346.482,239.475,324.336,184.782z M247.999,148
	c-1.237,5.456-6.675,8.876-12.123,7.632c-13.328-3.031-27.088-1.916-39.805,3.236c-16.524,6.695-29.452,19.419-36.403,35.83
	c-6.947,16.415-7.094,34.549-0.403,51.077c2.1,5.181-0.404,11.09-5.592,13.188c-1.244,0.507-2.531,0.747-3.8,0.747
	c-4.004,0-7.79-2.395-9.384-6.333c-8.727-21.54-8.539-45.186,0.523-66.577c9.054-21.401,25.909-37.993,47.45-46.715
	c16.57-6.713,34.53-8.173,51.91-4.21C245.825,137.115,249.246,142.544,247.999,148z"/>
<rect x="30" y="471" fill="#42637D" width="390" height="390"/>
<g display="none">
	<path display="inline" fill="#42637D" d="M231.9,89.65l-0.041-25.218c-0.012-4.861-3.953-8.796-8.812-8.787
		c-4.865,0.012-8.79,3.961-8.79,8.819l0.04,25.455C220.189,89.433,226.068,89.368,231.9,89.65z M325.777,133.844l17.778-17.835
		c3.434-3.438,3.428-9.014-0.018-12.446c-3.451-3.427-9.014-3.418-12.446,0.023l-18.008,18.059
		C317.556,125.423,321.804,129.476,325.777,133.844z M386.07,231.46c1.161-0.003,2.275-0.231,3.285-0.646
		c3.232-1.309,5.498-4.473,5.498-8.167c-0.013-4.859-3.948-8.796-8.813-8.791l-25.46,0.047c0.493,5.891,0.552,11.765,0.27,17.592
		L386.07,231.46z M324.251,185.034c-22.099-54.566-84.246-80.884-138.812-58.786c-12.229,4.953-23.032,11.924-32.192,20.368
		c2.905,3.62,5.675,7.363,8.31,11.231c7.77-7.353,16.905-13.279,27.121-17.41c16.537-6.702,34.451-8.157,51.791-4.208
		c5.445,1.241,8.854,6.66,7.617,12.106c-1.238,5.439-6.661,8.854-12.102,7.613c-13.296-3.031-27.026-1.916-39.713,3.224
		c-4.513,1.825-8.721,4.138-12.646,6.818c50.669,21.946,85.479,72.429,85.479,130.062c0,9.371-0.944,18.524-2.688,27.387
		C320.332,301.008,346.227,239.288,324.251,185.034z M344.378,160.036c2.465,4.531,4.729,9.23,6.713,14.133
		c1.326,3.26,2.472,6.557,3.521,9.864l56.666-22.946c6.688-2.711,9.911-10.328,7.206-17.012c-2.705-6.689-10.322-9.914-17.013-7.203
		l-56.823,23.017C344.555,159.927,344.472,159.988,344.378,160.036z M311.617,48.421c2.816-6.646-0.287-14.306-6.93-17.117
		c-6.644-2.817-14.301,0.285-17.117,6.924l-23.906,56.458c-0.04,0.1-0.07,0.202-0.105,0.308c8.368,2.461,16.479,5.715,24.224,9.717
		L311.617,48.421z M290.616,344.251c-0.035-0.097-0.101-0.185-0.142-0.285c-4.535,2.478-9.242,4.748-14.131,6.726
		c-3.279,1.322-6.57,2.468-9.876,3.521l22.956,56.664c2.705,6.691,10.322,9.914,17.005,7.208c6.685-2.713,9.906-10.326,7.2-17.01
		L290.616,344.251z M328.863,312.689c-3.778,4.465-7.834,8.711-12.211,12.692l17.845,17.772c2.576,2.568,6.343,3.211,9.518,1.926
		c1.068-0.436,2.061-1.079,2.923-1.947c3.433-3.438,3.427-9.014-0.019-12.443L328.863,312.689z M412.265,287.165l-56.448-23.906
		c-0.102-0.041-0.206-0.054-0.312-0.094c-2.453,8.364-5.71,16.478-9.724,24.214l56.304,23.839c3.32,1.408,6.9,1.339,10.004,0.082
		c3.093-1.256,5.71-3.69,7.119-7.016C422.012,297.645,418.913,289.98,412.265,287.165z M160.436,106.124
		c4.53-2.473,9.231-4.727,14.136-6.719c3.262-1.32,6.561-2.461,9.864-3.518L161.48,39.218c-2.705-6.681-10.327-9.902-17.005-7.197
		c-6.684,2.706-9.917,10.322-7.2,17.005l23.008,56.825C160.33,105.951,160.389,106.033,160.436,106.124z"/>
	<path display="inline" fill="#42637D" d="M138.548,186.887c-25.115-46.23-74.253-75.743-127.146-75.743
		c-3.841,0-7.642,0.149-11.402,0.425v28.961c3.749-0.343,7.549-0.534,11.402-0.534c37.296,0,72.211,18.364,93.752,48.023
		c-26.259,5.087-50.112,19.904-66.196,41.799c-4.713,6.424-3.328,15.453,3.092,20.166c6.425,4.719,15.45,3.332,20.168-3.092
		c14.716-20.033,38.317-32,63.139-32c43.165,0,78.279,35.114,78.279,78.279c0,43.164-35.114,78.277-78.279,78.277
		c-16.207,0-31.751-4.911-44.954-14.188c-4.278-3.008-9.594-3.316-14.054-1.375c-1.021,0.336-2.025,0.775-2.98,1.362
		c-17.692,10.879-29.839,14.199-51.967,14.199c-3.868,0-7.661-0.222-11.402-0.626v28.974c3.763,0.32,7.56,0.5,11.402,0.5
		c24.469,0,41.099-3.891,60.216-14.471c16.278,9.472,34.674,14.471,53.739,14.471c59.073,0,107.125-48.06,107.125-107.125
		C232.482,238.566,191.407,193.407,138.548,186.887z"/>
</g>
</svg>
